<?xml version="1.0" encoding="UTF-8" standalone="no"?>
<!-- Created with Inkscape (http://www.inkscape.org/) -->

<svg
   id="svg3336"
   version="1.1"
   inkscape:version="1.4.2 (ebf0e940d0, 2025-05-08)"
   width="319"
   height="52"
   viewBox="0 0 319 51.999998"
   sodipodi:docname="Funimation_2016.svg"
   xmlns:inkscape="http://www.inkscape.org/namespaces/inkscape"
   xmlns:sodipodi="http://sodipodi.sourceforge.net/DTD/sodipodi-0.dtd"
   xmlns="http://www.w3.org/2000/svg"
   xmlns:svg="http://www.w3.org/2000/svg"
   xmlns:rdf="http://www.w3.org/1999/02/22-rdf-syntax-ns#"
   xmlns:cc="http://creativecommons.org/ns#"
   xmlns:dc="http://purl.org/dc/elements/1.1/">
  <metadata
     id="metadata3342">
    <rdf:RDF>
      <cc:Work
         rdf:about="">
        <dc:format>image/svg+xml</dc:format>
        <dc:type
           rdf:resource="http://purl.org/dc/dcmitype/StillImage" />
      </cc:Work>
    </rdf:RDF>
  </metadata>
  <defs
     id="defs3340" />
  <sodipodi:namedview
     pagecolor="#ffffff"
     bordercolor="#666666"
     borderopacity="1"
     objecttolerance="10"
     gridtolerance="10"
     guidetolerance="10"
     inkscape:pageopacity="0"
     inkscape:pageshadow="2"
     inkscape:window-width="1356"
     inkscape:window-height="713"
     id="namedview3338"
     showgrid="false"
     inkscape:zoom="0.9"
     inkscape:cx="218.33333"
     inkscape:cy="273.33333"
     inkscape:window-x="0"
     inkscape:window-y="0"
     inkscape:window-maximized="1"
     inkscape:current-layer="svg3336"
     inkscape:showpageshadow="2"
     inkscape:pagecheckerboard="0"
     inkscape:deskcolor="#d1d1d1" />
  <path
     style="fill:#000000;fill-opacity:1;stroke-width:0.393795"
     d="M 40.299053,48.564889 C 38.913966,48.433543 37.589966,48.176705 36.306479,47.790392 31.449065,46.32839 27.927688,42.52846 26.579461,37.293916 c -0.63525,-2.466381 -0.61036,-1.848472 -0.65817,-16.339228 l -0.0445,-13.4973153 h 2.780947 2.780947 V 20.339119 c 0,8.455043 0.0439,13.275758 0.12787,14.028311 0.481827,4.3212 3.072197,7.261082 7.668781,8.703561 2.249717,0.705997 4.056134,0.738211 6.244021,0.11135 3.957817,-1.133968 6.315234,-3.60889 7.098474,-7.452284 0.23811,-1.168418 0.24393,-1.520546 0.24393,-14.734857 V 7.4573727 h 2.953464 2.953457 V 20.703252 c 0,14.343167 -0.002,14.408476 -0.651097,16.820359 -1.42764,5.309089 -5.091544,9.063342 -10.150981,10.40131 -2.292427,0.606228 -5.311864,0.859569 -7.627531,0.639968 z m 140.588967,-0.0057 c -2.30767,-0.222156 -4.60475,-0.901952 -6.1967,-1.833839 -1.07494,-0.62925 -2.61767,-2.057466 -3.28864,-3.044536 -0.61529,-0.90515 -1.31034,-2.415432 -1.55599,-3.380986 -0.3497,-1.374603 -0.48451,-3.3998 -0.32897,-4.941836 0.2583,-2.560686 0.96958,-4.314622 2.35776,-5.813983 1.74379,-1.88348 3.66852,-2.978272 6.82867,-3.884173 1.89379,-0.542887 3.3841,-0.797345 8.02756,-1.370654 6.17348,-0.762209 6.85065,-0.863853 7.58457,-1.138443 0.86622,-0.324092 1.57666,-1.036885 1.93487,-1.941282 0.24296,-0.613382 0.27662,-0.897959 0.27819,-2.351765 0.002,-1.399246 -0.0404,-1.790378 -0.27203,-2.539977 -0.82109,-2.656946 -2.7505,-4.142198 -6.04709,-4.655036 -4.77442,-0.742735 -8.8486,0.120086 -11.14477,2.360224 -1.29566,1.264028 -2.19429,3.639815 -2.19741,5.809433 l -8.1e-4,0.620228 h -2.8944 -2.89437 l 0.002,-0.265811 c 0.01,-1.12657 0.48481,-3.571102 0.96993,-4.991352 1.11741,-3.271372 3.88328,-6.1054533 7.21081,-7.3886853 2.85038,-1.099223 6.60522,-1.5803132 10.12443,-1.2971975 4.73517,0.3809395 7.23757,1.3293695 9.51413,3.6059278 1.69288,1.692894 2.49389,3.139543 3.09494,5.589495 0.17088,0.696652 0.2019,2.241533 0.26243,13.076388 0.0679,12.160271 0.0712,12.291251 0.31518,12.758955 0.58734,1.125725 2.02616,1.411844 3.62247,0.720356 l 0.44303,-0.191906 v 2.586189 2.586186 l -0.97501,0.162112 c -1.19692,0.199092 -3.82391,0.204447 -4.67518,0.0095 -1.44792,-0.331522 -2.65498,-1.245978 -3.26811,-2.475841 -0.34644,-0.694888 -0.64612,-1.953796 -0.64921,-2.727182 -8.1e-4,-0.281562 -0.0485,-0.49421 -0.10532,-0.472552 -0.0568,0.02166 -0.41918,0.438094 -0.80535,0.925416 -2.15489,2.719387 -4.21023,4.24172 -6.922,5.126931 -2.36253,0.771209 -5.41324,1.052402 -8.3502,0.769661 z m 5.20265,-5.023268 c 4.46053,-0.760741 7.7578,-3.097939 9.44259,-6.693177 0.86526,-1.846409 0.97283,-2.517271 1.03206,-6.437014 0.0288,-1.900552 0.0276,-3.45555 -0.002,-3.45555 -0.0301,0 -0.28738,0.102333 -0.57179,0.227407 -1.10217,0.484708 -3.99322,1.042235 -8.6096,1.660328 -7.57306,1.013973 -11.16286,2.793627 -12.00348,5.950775 -0.21604,0.811396 -0.20794,2.578681 0.0158,3.437536 0.69553,2.670354 3.11595,4.764561 6.20781,5.371171 0.88848,0.174317 3.3002,0.14129 4.48909,-0.06148 z m 32.36123,4.320309 c -3.5355,-0.421524 -5.49391,-1.90166 -6.20128,-4.686848 -0.38703,-1.523926 -0.40982,-2.435578 -0.41216,-16.485005 l -0.002,-14.147084 h -3.42601 -3.42603 V 10.05639 7.5754817 h 10.27808 10.27802 v 2.4809083 2.480902 h -4.01668 -4.01671 l 0.003,13.201977 c 0.003,12.538599 0.042,14.240986 0.34843,15.378838 0.29309,1.088442 1.09907,1.701567 2.50233,1.90355 0.71095,0.102333 4.09315,-0.03092 4.8541,-0.191242 l 0.32488,-0.06845 v 2.530714 2.530725 l -2.14539,0.07771 c -2.54235,0.09209 -3.89714,0.07978 -4.94289,-0.0449 z M 0.0473398,33.182023 c 0.0481,-15.796755 0.0147,-15.01779 0.7490291,-17.454963 1.696098,-5.629274 6.3995529,-8.8100863 13.7955041,-9.3295147 2.237917,-0.1571718 5.359404,0.02452 7.129891,0.4150104 l 0.26582,0.05863 v 2.692943 2.6929363 l -1.092777,-0.165517 c -0.64195,-0.09723 -2.116287,-0.170959 -3.573697,-0.178707 -2.162687,-0.0115 -2.638837,0.02095 -3.712204,0.25297 C 9.9155385,12.964166 7.5966012,14.725187 6.4917024,17.570676 5.936743,18.999829 5.7938533,20.19741 5.8297833,23.11754 l 0.0319,2.592228 6.7043627,0.03052 6.704351,0.03051 v 2.657141 2.657142 H 12.595576 5.920743 v 8.269691 8.26969 H 2.9620566 0.0033398 l 0.044,-14.442423 z M 63.217919,27.59998 V 7.5755107 h 2.892127 2.892134 l 0.0318,2.6141403 0.0319,2.614144 0.40883,-0.635326 c 0.57857,-0.899057 2.144037,-2.4288893 3.243277,-3.1694553 1.740487,-1.172554 3.915667,-2.037756 6.026204,-2.3969836 1.074767,-0.1829358 4.292384,-0.1705878 5.738764,0.02202 5.683911,0.7569096 9.402828,3.7617109 10.689015,8.6365069 0.71309,2.702703 0.68667,2.061138 0.73537,17.862393 l 0.0447,14.501493 h -2.834197 -2.834207 l -0.0471,-13.615453 c -0.0507,-14.672643 -0.0461,-14.560035 -0.683917,-16.687063 -0.83211,-2.774822 -2.672867,-4.662876 -5.342934,-5.480236 -1.8559,-0.568123 -4.766577,-0.572934 -6.793554,-0.01123 -3.750124,1.039214 -6.564091,3.976523 -7.758671,8.098756 -0.65312,2.253781 -0.6497,2.172472 -0.6502,15.438363 l -3.9e-4,12.256861 H 66.112476 63.218079 V 27.59998 Z m 36.977341,0 V 7.5755107 h 2.8944 2.89439 V 27.59998 47.624447 h -2.89439 -2.8944 z m 10.63248,0 V 7.5755107 h 2.65595 2.65594 l 0.0317,2.7375713 0.0317,2.737579 0.6619,-0.876898 c 2.13801,-2.8324733 4.58452,-4.5326373 7.54627,-5.2441423 3.75602,-0.902308 7.55365,-0.5647213 10.58794,0.941203 2.11344,1.048907 3.53938,2.4098153 4.53983,4.3327853 0.2645,0.508422 0.49701,0.924405 0.51667,0.924405 0.0196,0 0.28197,-0.370283 0.58293,-0.822847 1.94025,-2.9178613 5.0231,-4.8459773 9.00192,-5.6300993 1.27083,-0.2504494 4.23155,-0.2797654 5.66636,-0.05611 3.23109,0.5036547 5.48381,1.5957457 7.25365,3.5164803 1.92548,2.089638 2.94595,4.917581 3.20227,8.874132 0.062,0.956106 0.11372,7.785587 0.11506,15.176626 l 0.002,13.438248 h -2.89439 -2.8944 V 33.651478 c 0,-8.916088 -0.0443,-14.335272 -0.12239,-14.974055 -0.3903,-3.192387 -1.65159,-5.359086 -3.67527,-6.313548 -1.10284,-0.520163 -1.93984,-0.7338 -3.51279,-0.896617 -4.86092,-0.503163 -8.51946,1.477099 -10.23061,5.537491 -0.49137,1.16603 -0.71125,1.933075 -1.02788,3.585993 -0.25147,1.312793 -0.25726,1.586182 -0.30018,14.18615 l -0.0437,12.847555 h -2.88594 -2.88595 l -0.0359,-14.796841 -0.0358,-14.796843 -0.26643,-1.004179 c -0.55668,-2.098288 -1.65245,-3.747735 -3.02084,-4.547297 -1.50362,-0.878586 -3.42284,-1.233108 -5.51723,-1.019167 -2.78616,0.284602 -4.57326,1.073839 -6.3179,2.79021 -1.76816,1.739533 -2.83734,4.076429 -3.43671,7.511643 -0.16943,0.971048 -0.20021,2.685598 -0.24225,13.487473 l -0.0481,12.375001 h -2.82938 -2.82887 V 27.59998 Z m 119.31985,0 V 7.5755107 h 2.83533 2.83533 V 27.59998 47.624447 h -2.83533 -2.83533 z m 28.11697,19.854772 c -2.3568,-0.339244 -4.42209,-0.973302 -6.43856,-1.97669 -10.11298,-5.032167 -14.31924,-17.168936 -9.49198,-27.38823 4.10168,-8.6832163 13.80004,-13.3821207 23.25322,-11.2662833 7.91088,1.770633 13.97926,7.9726423 15.71733,16.0634153 0.3242,1.509142 0.44735,4.947553 0.23732,6.625382 -0.28793,2.299845 -0.97614,4.564408 -2.02992,6.679378 -1.13165,2.271255 -2.27209,3.797691 -4.27868,5.726699 -3.02827,2.911199 -6.43249,4.627771 -10.76645,5.428969 -1.34168,0.248024 -4.80821,0.308031 -6.20228,0.10736 z m 5.0554,-8.044243 c 1.22568,-0.242993 2.87193,-1.057515 3.65518,-1.808486 0.77477,-0.742846 1.47716,-1.824486 1.794,-2.762683 0.1353,-0.400706 0.24603,-0.771395 0.24603,-0.823751 0,-0.05237 -3.56885,-0.0952 -7.93074,-0.0952 h -7.93075 l 0.0716,0.443017 c 0.11494,0.711521 0.86201,2.09042 1.52851,2.82119 1.02547,1.124366 2.35802,1.859916 4.04244,2.231348 0.9884,0.217957 3.41164,0.215045 4.52378,-0.0055 z M 286.26338,27.59998 V 7.5755107 h 2.83307 2.83306 l 0.0318,2.6171013 0.0318,2.617105 0.60945,-0.819775 c 2.00967,-2.7031843 5.13674,-4.6028553 8.76105,-5.3222353 1.48724,-0.2952003 4.91666,-0.2633544 6.7578,0.06276 5.59818,0.991576 8.98098,3.9556883 10.15477,8.8979763 0.64626,2.721071 0.63247,2.36139 0.67982,17.730794 L 319,47.624453 h -2.90049 -2.90049 V 34.339926 c 0,-14.204208 -0.0197,-14.761316 -0.59658,-16.836216 -0.88404,-3.17984 -2.98687,-5.164314 -6.20964,-5.860119 -1.12113,-0.242053 -3.75803,-0.277545 -4.88948,-0.06582 -4.56366,0.854036 -7.78175,4.06978 -9.03253,9.02596 -0.50474,1.99997 -0.5367,2.909363 -0.5367,15.270573 v 11.750141 h -2.83534 -2.83532 z"
     id="path3346"
     inkscape:connector-curvature="0" />
</svg>
