<?xml version="1.0" encoding="UTF-8" standalone="no"?>
<!-- Created with Inkscape (http://www.inkscape.org/) -->

<svg
   id="svg3336"
   version="1.1"
   inkscape:version="1.4.2 (ebf0e940d0, 2025-05-08)"
   width="303"
   height="52"
   viewBox="0 0 303 52.000002"
   sodipodi:docname="Funimation_2016.svg"
   xmlns:inkscape="http://www.inkscape.org/namespaces/inkscape"
   xmlns:sodipodi="http://sodipodi.sourceforge.net/DTD/sodipodi-0.dtd"
   xmlns="http://www.w3.org/2000/svg"
   xmlns:svg="http://www.w3.org/2000/svg"
   xmlns:rdf="http://www.w3.org/1999/02/22-rdf-syntax-ns#"
   xmlns:cc="http://creativecommons.org/ns#"
   xmlns:dc="http://purl.org/dc/elements/1.1/">
  <metadata
     id="metadata3342">
    <rdf:RDF>
      <cc:Work
         rdf:about="">
        <dc:format>image/svg+xml</dc:format>
        <dc:type
           rdf:resource="http://purl.org/dc/dcmitype/StillImage" />
      </cc:Work>
    </rdf:RDF>
  </metadata>
  <defs
     id="defs3340" />
  <sodipodi:namedview
     pagecolor="#ffffff"
     bordercolor="#666666"
     borderopacity="1"
     objecttolerance="10"
     gridtolerance="10"
     guidetolerance="10"
     inkscape:pageopacity="0"
     inkscape:pageshadow="2"
     inkscape:window-width="1356"
     inkscape:window-height="713"
     id="namedview3338"
     showgrid="false"
     inkscape:zoom="1.7777778"
     inkscape:cx="150.46875"
     inkscape:cy="19.125"
     inkscape:window-x="0"
     inkscape:window-y="0"
     inkscape:window-maximized="1"
     inkscape:current-layer="svg3336"
     inkscape:showpageshadow="2"
     inkscape:pagecheckerboard="0"
     inkscape:deskcolor="#d1d1d1" />
  <path
     style="fill:#472d8e;fill-opacity:1;stroke-width:0.37408"
     d="M 38.251772,45.130251 C 36.936031,45.00548 35.678317,44.761501 34.459073,44.394528 29.844834,43.005718 26.499751,39.39602 25.21902,34.423536 24.615572,32.080629 24.639218,32.667602 24.593805,18.902301 l -0.0423,-12.821602 h 2.641729 2.641733 v 12.236849 c 0,8.031756 0.04174,12.611131 0.121448,13.326011 0.457718,4.104865 2.918399,6.897566 7.284874,8.267833 2.13709,0.670651 3.853057,0.701252 5.93141,0.105775 3.759679,-1.077198 5.999081,-3.428217 6.743104,-7.0792 0.226188,-1.109922 0.231724,-1.444421 0.231724,-13.997182 V 6.080699 h 2.805603 2.805602 V 18.66345 c 0,13.625104 -0.0022,13.687143 -0.618501,15.978281 -1.356175,5.043299 -4.836652,8.609604 -9.642806,9.880591 -2.177649,0.575878 -5.045918,0.816535 -7.245653,0.607929 z m 133.550638,-0.0054 c -2.19214,-0.211033 -4.37422,-0.856797 -5.88647,-1.742032 -1.02113,-0.597747 -2.48664,-1.954465 -3.12403,-2.89212 -0.58448,-0.859836 -1.24474,-2.29451 -1.47808,-3.211723 -0.33219,-1.305787 -0.46025,-3.229595 -0.3125,-4.694434 0.24537,-2.432488 0.92104,-4.098618 2.23971,-5.522914 1.65652,-1.789188 3.48489,-2.829171 6.48683,-3.689721 1.79898,-0.515708 3.21468,-0.757427 7.62567,-1.302033 5.86442,-0.724053 6.50768,-0.820608 7.20485,-1.081452 0.82285,-0.307867 1.49772,-0.984973 1.83801,-1.844091 0.23079,-0.582678 0.26276,-0.853007 0.26425,-2.234028 0.001,-1.329198 -0.0383,-1.700748 -0.2584,-2.412818 -0.77998,-2.523931 -2.61279,-3.934827 -5.74435,-4.42199 -4.53539,-0.705552 -8.4056,0.114074 -10.58682,2.242063 -1.23079,1.200747 -2.08444,3.457592 -2.0874,5.518594 l -0.001,0.589176 h -2.74949 -2.74949 l 0.002,-0.252504 c 0.009,-1.070168 0.46054,-3.39232 0.92137,-4.741468 1.0615,-3.107596 3.6889,-5.799799 6.84984,-7.018789 2.70768,-1.044192 6.27453,-1.501197 9.61756,-1.232255 4.49811,0.361868 6.87523,1.262816 9.03782,3.425408 1.60815,1.608144 2.36906,2.982368 2.94001,5.309668 0.16234,0.661775 0.1918,2.129314 0.2493,12.421739 0.0645,11.551491 0.0676,11.675914 0.2994,12.120202 0.55793,1.069369 1.92472,1.341165 3.44113,0.684295 l 0.42084,-0.182298 v 2.456716 2.456717 l -0.92585,0.153998 c -1.137,0.189124 -3.63247,0.194211 -4.44111,0.0091 -1.37545,-0.314927 -2.52209,-1.183601 -3.10454,-2.351891 -0.32908,-0.660108 -0.61376,-1.855991 -0.6167,-2.590658 -0.001,-0.267468 -0.0461,-0.469471 -0.10004,-0.448896 -0.0539,0.02057 -0.3982,0.416164 -0.76503,0.879088 -2.04701,2.583252 -3.99945,4.029371 -6.57547,4.870266 -2.24426,0.732599 -5.14223,0.999714 -7.93216,0.731128 z m 4.94218,-4.771792 c 4.23722,-0.722656 7.36942,-2.942846 8.96986,-6.358094 0.82194,-1.753974 0.92412,-2.391248 0.98039,-6.114757 0.0273,-1.805405 0.0262,-3.282555 -0.002,-3.282555 -0.0286,0 -0.27299,0.09721 -0.54316,0.216024 -1.047,0.46044 -3.7933,0.990054 -8.17857,1.577206 -7.19392,0.96321 -10.604,2.653769 -11.40254,5.65286 -0.20522,0.770774 -0.19752,2.449584 0.015,3.265442 0.66072,2.536667 2.95996,4.526032 5.89702,5.102273 0.844,0.165589 3.13498,0.134216 4.26436,-0.0584 z m 30.74112,4.104025 c -3.3585,-0.400419 -5.21886,-1.806456 -5.89081,-4.452214 -0.36766,-1.447634 -0.38931,-2.313645 -0.39152,-15.659713 l -0.002,-13.438835 h -3.2545 -3.2545 V 8.549616 6.19291 h 9.7635 9.76349 v 2.356706 2.356706 h -3.81562 -3.81562 l 0.003,12.541042 c 0.003,11.910878 0.0399,13.528038 0.33098,14.608926 0.27842,1.033952 1.04406,1.616381 2.37706,1.808252 0.67535,0.09721 3.88822,-0.02937 4.61111,-0.181667 l 0.30862,-0.06502 v 2.404025 2.404026 l -2.03802,0.07382 c -2.41506,0.08748 -3.70204,0.07579 -4.69542,-0.04265 z M 0.01520126,30.517495 C 0.06091388,15.511576 0.0291582,16.251544 0.72671699,13.936386 2.3379034,8.58893 6.805889,5.567355 13.831585,5.07393 c 2.125872,-0.1493025 5.091084,0.02329 6.772949,0.394234 l 0.252504,0.05569 v 2.558125 2.558125 l -1.038073,-0.157231 c -0.609815,-0.09236 -2.010334,-0.162399 -3.394779,-0.169759 -2.054427,-0.01092 -2.506731,0.0199 -3.526365,0.240305 -3.5084623,0.758386 -5.711309,2.431244 -6.7608999,5.134277 -0.5271614,1.357608 -0.6629152,2.495231 -0.6287766,5.269171 l 0.030301,2.462453 6.3687175,0.02898 6.368717,0.02898 v 2.524116 2.524117 H 11.935218 5.594557 V 36.3812 44.236887 H 2.7839792 -0.02659847 L 0.01519752,30.517495 Z M 60.023247,25.214907 V 6.192923 h 2.747343 2.747343 l 0.03019,2.483273 0.03019,2.483272 0.388371,-0.603519 c 0.549591,-0.854048 2.036687,-2.307298 3.08091,-3.010788 1.653345,-1.113853 3.719627,-1.935739 5.724503,-2.276983 1.020973,-0.173777 4.07749,-0.162048 5.451461,0.02092 5.399356,0.719017 8.932084,3.573394 10.153883,8.204141 0.677396,2.567397 0.652306,1.95795 0.698554,16.968144 l 0.04245,13.775508 h -2.692316 -2.692308 l -0.04469,-12.933827 c -0.04817,-13.938081 -0.04378,-13.83111 -0.649695,-15.851654 -0.790447,-2.635905 -2.53904,-4.429435 -5.075447,-5.205878 -1.762977,-0.53968 -4.527928,-0.544249 -6.453432,-0.01066 -3.562389,0.987189 -6.235477,3.777446 -7.37025,7.693306 -0.620419,2.14095 -0.617169,2.063712 -0.617655,14.665469 l -3.74e-4,11.643249 h -2.74949 -2.749491 V 25.214907 Z m 35.126142,0 V 6.192923 h 2.74949 2.749491 v 19.021984 19.021984 h -2.749491 -2.74949 z m 10.100171,0 V 6.192923 h 2.52297 2.52297 l 0.0301,2.600525 0.0301,2.600526 0.62876,-0.832996 c 2.03097,-2.690676 4.35502,-4.305725 7.1685,-4.98161 3.56798,-0.8571347 7.17549,-0.536449 10.05786,0.894083 2.00764,0.996396 3.36219,2.289178 4.31255,4.115878 0.25126,0.48297 0.47213,0.878126 0.49081,0.878126 0.0187,0 0.26786,-0.351744 0.55374,-0.781653 1.84311,-2.771788 4.77162,-4.603377 8.55127,-5.348243 1.20722,-0.23791 4.0197,-0.265759 5.38269,-0.0533 3.06933,0.478441 5.20926,1.515858 6.8905,3.34044 1.82907,1.985024 2.79847,4.671392 3.04195,8.429864 0.0588,0.90824 0.10802,7.395816 0.10929,14.416836 l 0.002,12.765491 h -2.74949 -2.74949 V 30.963448 c 0,-8.46972 -0.0421,-13.617602 -0.11627,-14.224404 -0.37076,-3.032567 -1.5689,-5.090794 -3.49126,-5.997472 -1.04764,-0.494122 -1.84273,-0.697063 -3.33694,-0.851731 -4.61756,-0.477972 -8.09296,1.403153 -9.71843,5.260266 -0.46679,1.107654 -0.67565,1.8363 -0.97642,3.406467 -0.23888,1.247071 -0.24438,1.506773 -0.28516,13.475947 l -0.0416,12.20437 h -2.74146 -2.74146 l -0.0341,-14.056068 -0.034,-14.056068 -0.25309,-0.953905 c -0.52882,-1.99324 -1.56972,-3.560109 -2.8696,-4.319644 -1.42836,-0.834599 -3.25148,-1.171375 -5.24103,-0.968146 -2.64668,0.270356 -4.34429,1.020081 -6.0016,2.650524 -1.67966,1.652447 -2.69532,3.872351 -3.26468,7.135587 -0.16094,0.922433 -0.19019,2.551147 -0.23012,12.812246 l -0.0457,11.755474 h -2.68724 -2.68724 V 25.214907 Z m 113.34633,0 V 6.192923 h 2.69338 2.69338 v 19.021984 19.021984 h -2.69338 -2.69338 z m 26.70934,18.860785 c -2.2388,-0.322262 -4.20069,-0.924577 -6.11621,-1.87773 -9.60671,-4.780246 -13.60239,-16.309411 -9.01681,-26.017095 3.89633,-8.24851 13.10918,-12.7121729 22.08911,-10.70226 7.51482,1.681989 13.27941,7.573511 14.93047,15.259232 0.30798,1.433591 0.42496,4.699863 0.22544,6.293695 -0.27352,2.184711 -0.92728,4.335902 -1.92829,6.344987 -1.075,2.15755 -2.15838,3.607568 -4.0645,5.440001 -2.87666,2.765458 -6.11045,4.396096 -10.22745,5.157185 -1.27449,0.235607 -4.56747,0.292609 -5.89176,0.101985 z m 4.80232,-7.641528 c 1.16431,-0.230829 2.72814,-1.004572 3.47219,-1.717948 0.73597,-0.705655 1.40319,-1.733146 1.70416,-2.624373 0.12855,-0.380644 0.23372,-0.732776 0.23372,-0.782514 0,-0.04974 -3.39016,-0.09043 -7.53369,-0.09043 h -7.53371 l 0.068,0.42084 c 0.10918,0.675899 0.81885,1.985764 1.45198,2.679952 0.97412,1.068076 2.23997,1.766801 3.84006,2.119639 0.93893,0.207047 3.24084,0.204281 4.29731,-0.0052 z M 271.90234,25.214907 V 6.192923 h 2.69123 2.69123 l 0.0302,2.486086 0.0302,2.486085 0.57894,-0.778734 c 1.90905,-2.56786 4.87958,-4.372428 8.32243,-5.055793 1.41279,-0.280422 4.67054,-0.25017 6.4195,0.05961 5.31793,0.941934 8.53135,3.757657 9.64638,8.45252 0.6139,2.584846 0.6008,2.24317 0.64579,16.843132 L 303,44.236891 h -2.75528 -2.75528 V 31.617428 c 0,-13.493101 -0.0187,-14.022319 -0.56671,-15.993343 -0.83978,-3.020645 -2.83733,-4.90577 -5.89876,-5.56674 -1.065,-0.229936 -3.56993,-0.263652 -4.64472,-0.06252 -4.33518,0.811279 -7.39216,3.866031 -8.58033,8.574087 -0.47947,1.899846 -0.50982,2.763712 -0.50982,14.506081 v 11.161896 h -2.69338 -2.69338 z"
     id="path3346"
     inkscape:connector-curvature="0" />
</svg>
